<svg width="164" height="72" viewBox="0 0 164 72" fill="none" xmlns="http://www.w3.org/2000/svg">
<g clip-path="url(#clip0_585_13413)">
<path d="M27.5553 65.0528C30.2493 65.0528 32.8554 64.6938 35.3335 64.0159L32.8077 70.9555C32.755 71.0986 32.6194 71.194 32.4663 71.194H24.6855C24.4345 71.194 24.2587 70.9429 24.3441 70.7069L26.4079 65.0277H26.4129C26.7945 65.0503 27.1686 65.0553 27.5503 65.0553L27.5553 65.0528Z" fill="#ADD136"/>
<path d="M30.7634 0.487079L28.6996 6.16632C28.318 6.14372 27.9388 6.1387 27.5572 6.1387C24.8632 6.1387 22.2521 6.50276 19.7715 7.18316L22.2948 0.238518C22.3475 0.0954072 22.4831 0 22.6362 0H30.4219C30.673 0 30.8488 0.251072 30.7634 0.487079Z" fill="#ADD136"/>
<path d="M51.1081 49.195L44.7686 45.5318C44.5979 45.4339 44.3819 45.4917 44.2815 45.6599C40.8669 51.3216 34.6579 55.1102 27.5576 55.1102C26.6236 55.1102 25.7022 55.0449 24.8084 54.9169C22.0592 54.5303 19.4982 53.5762 17.2436 52.1677C14.532 50.4729 12.2648 48.1329 10.658 45.3536C8.9959 42.4889 8.04685 39.1546 8.04685 35.5969C8.04685 32.0393 8.9959 28.7075 10.658 25.8353C14.0324 20.0054 20.3368 16.0786 27.5576 16.0786C28.4916 16.0786 29.413 16.1439 30.3069 16.272C33.0561 16.6586 35.617 17.6202 37.8716 19.0262C40.4828 20.6582 42.6897 22.8852 44.284 25.5265C44.387 25.6947 44.6004 25.7524 44.7711 25.6545L51.1056 21.9914C51.2814 21.8909 51.3416 21.6625 51.2387 21.4892C48.7004 17.226 45.0397 13.711 40.6661 11.3459L44.6154 0.487079C44.7008 0.251072 44.5276 0 44.274 0H36.4832C36.3301 0 36.1945 0.0954072 36.1418 0.238518L33.0988 8.59669C31.3111 8.23264 29.4557 8.03931 27.5551 8.03931C17.3591 8.03931 8.45358 13.583 3.68824 21.8131C1.34072 25.8654 0 30.5755 0 35.5994C0 40.6234 1.34825 45.3285 3.69326 49.3808C6.23913 53.7871 9.97005 57.4201 14.4492 59.8429L10.4973 70.7068C10.4119 70.9428 10.5852 71.1939 10.8388 71.1939H18.6295C18.7827 71.1939 18.9182 71.0985 18.971 70.9554L22.014 62.5972C23.8016 62.9612 25.657 63.1546 27.5576 63.1546C37.6231 63.1546 46.4282 57.754 51.2437 49.6996C51.3467 49.5264 51.2864 49.2979 51.1107 49.195H51.1081Z" fill="url(#paint0_linear_585_13413)"/>
<path d="M71.7265 9.3802C73.4941 9.3802 74.6616 9.93004 75.7437 10.746L74.8926 12.3454C74.0766 11.7453 72.9919 11.2783 71.7416 11.2783C69.0903 11.2783 67.5412 13.1287 67.5412 15.3959C67.5412 17.663 69.0903 19.5134 71.7416 19.5134C72.9919 19.5134 74.0766 19.064 74.8926 18.4464L75.7437 20.0633C74.6591 20.8793 73.4941 21.4141 71.7265 21.4141C67.7747 21.4141 65.3594 18.6473 65.3594 15.3959C65.3594 12.1445 67.7772 9.37769 71.7265 9.37769V9.3802Z" fill="white"/>
<path d="M85.8954 12.7997V21.2332H83.8442V19.9653C83.2441 20.8817 82.1946 21.4165 80.9594 21.4165C78.4587 21.4165 76.8242 19.4506 76.8242 16.9825C76.8242 14.5145 78.3909 12.6139 80.9744 12.6139C82.1068 12.6139 83.1588 13.0809 83.8417 14.0475V12.7972H85.8929L85.8954 12.7997ZM81.3787 19.6991C82.7796 19.6991 83.8969 18.7501 83.8969 17.083C83.8969 15.4159 82.8474 14.3312 81.3309 14.3312C79.8145 14.3312 78.8981 15.5489 78.8981 16.9976C78.8981 18.4463 79.8471 19.6991 81.3812 19.6991H81.3787Z" fill="white"/>
<path d="M89.2941 18.5493C89.51 19.3828 90.3285 19.767 91.0943 19.767C91.6943 19.767 92.3622 19.5511 92.3622 18.8832C92.3622 18.4488 91.963 18.2003 91.4458 17.9844L90.213 17.5174C88.5283 16.8847 88.0965 15.9331 88.0965 15.1673C88.0965 13.6007 89.4297 12.6165 91.1796 12.6165C92.2467 12.6165 93.5799 12.983 94.1297 14.4995L92.4802 15.0996C92.2643 14.4166 91.6466 14.2334 91.1972 14.2334C90.6649 14.2334 90.0975 14.5346 90.0975 15.1171C90.0975 15.5841 90.5143 15.8176 90.9813 15.9833L92.2316 16.4327C94.0318 17.0328 94.3808 18.1174 94.3808 18.8506C94.3808 20.5177 92.8317 21.4165 91.0792 21.4165C89.7134 21.4165 88.1617 20.8491 87.6797 19.2322L89.2966 18.5493H89.2941Z" fill="white"/>
<path d="M96.2949 9.56091H98.3462V14.2133C98.8785 13.1136 99.8626 12.6139 101.063 12.6139C103.164 12.6139 104.196 14.1304 104.196 16.5658V21.2332H102.145V16.5834C102.145 15.1171 101.512 14.3488 100.495 14.3488C99.4785 14.3488 98.3462 15.0996 98.3462 17.0152V21.2332H96.2949V9.56091Z" fill="white"/>
<path d="M116.113 17.5826L118.596 9.56335H120.745L117.094 21.2332H115.362L112.912 13.3144L110.461 21.2332H108.711L105.061 9.56335H107.21L109.693 17.5826L112.093 9.94749H113.728L116.11 17.5826H116.113Z" fill="white"/>
<path d="M130.116 12.7997V21.2332H128.065V19.9653C127.465 20.8817 126.415 21.4165 125.18 21.4165C122.679 21.4165 121.045 19.4506 121.045 16.9825C121.045 14.5145 122.612 12.6139 125.195 12.6139C126.327 12.6139 127.379 13.0809 128.062 14.0475V12.7972H130.114L130.116 12.7997ZM125.599 19.6991C127 19.6991 128.118 18.7501 128.118 17.083C128.118 15.4159 127.068 14.3312 125.552 14.3312C124.035 14.3312 123.119 15.5489 123.119 16.9976C123.119 18.4463 124.068 19.6991 125.602 19.6991H125.599Z" fill="white"/>
<path d="M138.516 12.7998H140.816L135.581 25.0521H133.565L135.282 20.7337L131.699 12.7998H134.017L136.316 18.5845L138.516 12.7998Z" fill="white"/>
<path d="M142.965 18.5493C143.181 19.3828 144 19.767 144.766 19.767C145.366 19.767 146.033 19.5511 146.033 18.8832C146.033 18.4488 145.634 18.2003 145.117 17.9844L143.884 17.5174C142.2 16.8847 141.768 15.9331 141.768 15.1673C141.768 13.6007 143.101 12.6165 144.851 12.6165C145.918 12.6165 147.251 12.983 147.801 14.4995L146.151 15.0996C145.936 14.4166 145.318 14.2334 144.869 14.2334C144.336 14.2334 143.769 14.5346 143.769 15.1171C143.769 15.5841 144.186 15.8176 144.653 15.9833L145.903 16.4327C147.703 17.0328 148.055 18.1174 148.055 18.8506C148.055 20.5177 146.505 21.4165 144.753 21.4165C143.387 21.4165 141.836 20.8491 141.354 19.2322L142.97 18.5493H142.965Z" fill="white"/>
<path d="M65.356 61.2867V27.9293H79.3658C86.0368 27.9293 89.8029 32.8855 89.8029 38.6526C89.8029 44.4197 86.0393 49.0896 79.3658 49.0896H71.4546V61.2892H65.3535L65.356 61.2867ZM78.4143 44.2741C81.6556 44.2741 83.5612 41.9868 83.5612 38.6024C83.5612 35.2179 81.6556 32.8353 78.4143 32.8353H71.4571V44.2716H78.4143V44.2741Z" fill="white"/>
<path d="M118.254 37.1739V61.2868H112.391V57.6638C110.676 60.3327 107.721 61.809 104.146 61.809C96.9981 61.809 92.3281 56.1373 92.3281 49.1324C92.3281 42.1275 96.8072 36.6466 104.194 36.6466C107.435 36.6466 110.435 37.9321 112.391 40.7441V37.1688H118.254V37.1739ZM105.339 56.9031C109.341 56.9031 112.534 54.1865 112.534 49.4211C112.534 44.6558 109.532 41.5576 105.196 41.5576C100.86 41.5576 98.2384 45.0374 98.2384 49.1826C98.2384 53.3278 100.955 56.9031 105.339 56.9031Z" fill="white"/>
<path d="M127.448 53.6139C128.069 56.0443 130.356 57.0937 132.595 57.0937C134.31 57.0937 136.218 56.4736 136.218 54.568C136.218 53.2825 135.073 52.6146 133.597 51.9945L130.07 50.6613C125.257 48.8988 124.016 46.0868 124.016 43.9426C124.016 39.4635 127.828 36.6515 132.831 36.6515C135.834 36.6515 139.741 37.701 141.267 42.037L136.55 43.7518C135.93 41.7985 134.167 41.2737 132.879 41.2737C131.355 41.2737 129.733 42.1324 129.733 43.7995C129.733 45.1327 130.926 45.7528 132.259 46.2776L135.834 47.5631C141.029 49.1825 141.983 52.4238 141.983 54.4726C141.983 59.2379 137.552 61.8114 132.548 61.8114C128.593 61.8114 124.207 60.1443 122.826 55.5697L127.448 53.6164V53.6139Z" fill="white"/>
<path d="M149.466 53.6139C150.086 56.0443 152.373 57.0937 154.613 57.0937C156.328 57.0937 158.236 56.4736 158.236 54.568C158.236 53.2825 157.091 52.6146 155.615 51.9945L152.087 50.6613C147.274 48.8988 146.034 46.0868 146.034 43.9426C146.034 39.4635 149.845 36.6515 154.849 36.6515C157.852 36.6515 161.758 37.701 163.285 42.037L158.567 43.7518C157.947 41.7985 156.185 41.2737 154.897 41.2737C153.373 41.2737 151.751 42.1324 151.751 43.7995C151.751 45.1327 152.943 45.7528 154.276 46.2776L157.852 47.5631C163.046 49.1825 164.001 52.4238 164.001 54.4726C164.001 59.2379 159.569 61.8114 154.565 61.8114C150.611 61.8114 146.225 60.1443 144.844 55.5697L149.466 53.6164V53.6139Z" fill="white"/>
<path d="M20.6099 49.2303V24.0679H31.1775C36.209 24.0679 39.0486 27.8063 39.0486 32.1549C39.0486 36.5035 36.209 40.026 31.1775 40.026H25.2096V49.2278H20.6074L20.6099 49.2303ZM30.4595 36.398C32.9049 36.398 34.341 34.6731 34.341 32.1197C34.341 29.5663 32.9024 27.7712 30.4595 27.7712H25.2121V36.398H30.4595Z" fill="white"/>
</g>
<defs>
<linearGradient id="paint0_linear_585_13413" x1="7.93889" y1="69.577" x2="47.1739" y2="1.6169" gradientUnits="userSpaceOnUse">
<stop stop-color="#164396"/>
<stop offset="0.8" stop-color="#00A0DD"/>
</linearGradient>
<clipPath id="clip0_585_13413">
<rect width="164" height="71.1939" fill="white"/>
</clipPath>
</defs>
</svg>
