<svg width="164" height="72" viewBox="0 0 164 72" fill="none" xmlns="http://www.w3.org/2000/svg">
<g clip-path="url(#clip0_585_13317)">
<path d="M27.5551 65.0528C30.249 65.0528 32.8552 64.6938 35.3332 64.0159L32.8075 70.9555C32.7547 71.0986 32.6192 71.194 32.466 71.194H24.6853C24.4342 71.194 24.2585 70.9429 24.3438 70.7069L26.4077 65.0277H26.4127C26.7943 65.0503 27.1684 65.0553 27.55 65.0553L27.5551 65.0528Z" fill="#ADD136"/>
<path d="M30.7638 0.487079L28.7 6.16632C28.3183 6.14372 27.9392 6.1387 27.5576 6.1387C24.8636 6.1387 22.2524 6.50276 19.7719 7.18316L22.2951 0.238518C22.3478 0.0954072 22.4834 0 22.6366 0H30.4223C30.6734 0 30.8491 0.251072 30.7638 0.487079Z" fill="#ADD136"/>
<path d="M51.1081 49.195L44.7686 45.5318C44.5979 45.4339 44.3819 45.4917 44.2815 45.6599C40.8669 51.3216 34.6579 55.1102 27.5576 55.1102C26.6236 55.1102 25.7022 55.0449 24.8084 54.9169C22.0592 54.5303 19.4982 53.5762 17.2436 52.1677C14.532 50.4729 12.2648 48.1329 10.658 45.3536C8.9959 42.4889 8.04685 39.1546 8.04685 35.5969C8.04685 32.0393 8.9959 28.7075 10.658 25.8353C14.0324 20.0054 20.3368 16.0786 27.5576 16.0786C28.4916 16.0786 29.413 16.1439 30.3069 16.272C33.0561 16.6586 35.617 17.6202 37.8716 19.0262C40.4828 20.6582 42.6897 22.8852 44.284 25.5265C44.387 25.6947 44.6004 25.7524 44.7711 25.6545L51.1056 21.9914C51.2814 21.8909 51.3416 21.6625 51.2387 21.4892C48.7004 17.226 45.0397 13.711 40.6661 11.3459L44.6154 0.487079C44.7008 0.251072 44.5276 0 44.274 0H36.4832C36.3301 0 36.1945 0.0954072 36.1418 0.238518L33.0988 8.59669C31.3111 8.23264 29.4557 8.03931 27.5551 8.03931C17.3591 8.03931 8.45358 13.583 3.68824 21.8131C1.34072 25.8654 0 30.5755 0 35.5994C0 40.6234 1.34825 45.3285 3.69326 49.3808C6.23913 53.7871 9.97005 57.4201 14.4492 59.8429L10.4973 70.7068C10.4119 70.9428 10.5852 71.1939 10.8388 71.1939H18.6295C18.7827 71.1939 18.9182 71.0985 18.971 70.9554L22.014 62.5972C23.8016 62.9612 25.657 63.1546 27.5576 63.1546C37.6231 63.1546 46.4282 57.754 51.2437 49.6996C51.3467 49.5264 51.2864 49.2979 51.1107 49.195H51.1081Z" fill="url(#paint0_linear_585_13317)"/>
<path d="M71.7261 9.3802C73.4936 9.3802 74.6611 9.93004 75.7432 10.746L74.8921 12.3454C74.0761 11.7453 72.9915 11.2783 71.7411 11.2783C69.0898 11.2783 67.5407 13.1287 67.5407 15.3959C67.5407 17.663 69.0898 19.5134 71.7411 19.5134C72.9915 19.5134 74.0761 19.064 74.8921 18.4464L75.7432 20.0633C74.6586 20.8793 73.4936 21.4141 71.7261 21.4141C67.7742 21.4141 65.3589 18.6473 65.3589 15.3959C65.3589 12.1445 67.7767 9.37769 71.7261 9.37769V9.3802Z" fill="white"/>
<path d="M85.8942 12.7997V21.2332H83.843V19.9653C83.2429 20.8817 82.1934 21.4165 80.9581 21.4165C78.4575 21.4165 76.823 19.4506 76.823 16.9825C76.823 14.5145 78.3897 12.6139 80.9732 12.6139C82.1055 12.6139 83.1575 13.0809 83.8404 14.0475V12.7972H85.8917L85.8942 12.7997ZM81.3774 19.6991C82.7784 19.6991 83.8957 18.7501 83.8957 17.083C83.8957 15.4159 82.8462 14.3312 81.3297 14.3312C79.8133 14.3312 78.8968 15.5489 78.8968 16.9976C78.8968 18.4463 79.8459 19.6991 81.3799 19.6991H81.3774Z" fill="white"/>
<path d="M89.2936 18.5493C89.5095 19.3828 90.328 19.767 91.0938 19.767C91.6938 19.767 92.3617 19.5511 92.3617 18.8832C92.3617 18.4488 91.9625 18.2003 91.4453 17.9844L90.2125 17.5174C88.5278 16.8847 88.096 15.9331 88.096 15.1673C88.096 13.6007 89.4292 12.6165 91.1791 12.6165C92.2462 12.6165 93.5794 12.983 94.1292 14.4995L92.4797 15.0996C92.2638 14.4166 91.6461 14.2334 91.1967 14.2334C90.6644 14.2334 90.097 14.5346 90.097 15.1171C90.097 15.5841 90.5138 15.8176 90.9808 15.9833L92.2311 16.4327C94.0313 17.0328 94.3803 18.1174 94.3803 18.8506C94.3803 20.5177 92.8312 21.4165 91.0787 21.4165C89.7129 21.4165 88.1613 20.8491 87.6792 19.2322L89.2961 18.5493H89.2936Z" fill="white"/>
<path d="M96.2935 9.56091H98.3447V14.2133C98.877 13.1136 99.8612 12.6139 101.061 12.6139C103.163 12.6139 104.195 14.1304 104.195 16.5658V21.2332H102.143V16.5834C102.143 15.1171 101.511 14.3488 100.494 14.3488C99.477 14.3488 98.3447 15.0996 98.3447 17.0152V21.2332H96.2935V9.56091Z" fill="white"/>
<path d="M116.113 17.5826L118.596 9.56335H120.745L117.095 21.2332H115.362L112.912 13.3144L110.461 21.2332H108.711L105.061 9.56335H107.21L109.693 17.5826L112.093 9.94749H113.728L116.111 17.5826H116.113Z" fill="white"/>
<path d="M130.115 12.7997V21.2332H128.064V19.9653C127.464 20.8817 126.415 21.4165 125.179 21.4165C122.679 21.4165 121.044 19.4506 121.044 16.9825C121.044 14.5145 122.611 12.6139 125.194 12.6139C126.327 12.6139 127.379 13.0809 128.062 14.0475V12.7972H130.113L130.115 12.7997ZM125.599 19.6991C127 19.6991 128.117 18.7501 128.117 17.083C128.117 15.4159 127.067 14.3312 125.551 14.3312C124.034 14.3312 123.118 15.5489 123.118 16.9976C123.118 18.4463 124.067 19.6991 125.601 19.6991H125.599Z" fill="white"/>
<path d="M138.516 12.7998H140.816L135.581 25.0521H133.565L135.282 20.7337L131.7 12.7998H134.017L136.317 18.5845L138.516 12.7998Z" fill="white"/>
<path d="M142.965 18.5493C143.181 19.3828 144 19.767 144.765 19.767C145.365 19.767 146.033 19.5511 146.033 18.8832C146.033 18.4488 145.634 18.2003 145.117 17.9844L143.884 17.5174C142.199 16.8847 141.768 15.9331 141.768 15.1673C141.768 13.6007 143.101 12.6165 144.851 12.6165C145.918 12.6165 147.251 12.983 147.801 14.4995L146.151 15.0996C145.935 14.4166 145.318 14.2334 144.868 14.2334C144.336 14.2334 143.769 14.5346 143.769 15.1171C143.769 15.5841 144.185 15.8176 144.652 15.9833L145.903 16.4327C147.703 17.0328 148.054 18.1174 148.054 18.8506C148.054 20.5177 146.505 21.4165 144.753 21.4165C143.387 21.4165 141.835 20.8491 141.353 19.2322L142.97 18.5493H142.965Z" fill="white"/>
<path d="M65.3564 61.2867V27.9293H79.3662C86.0372 27.9293 89.8032 32.8855 89.8032 38.6526C89.8032 44.4197 86.0397 49.0896 79.3662 49.0896H71.4549V61.2892H65.3539L65.3564 61.2867ZM78.4146 44.2741C81.656 44.2741 83.5616 41.9868 83.5616 38.6024C83.5616 35.2179 81.656 32.8353 78.4146 32.8353H71.4574V44.2716H78.4146V44.2741Z" fill="white"/>
<path d="M118.255 37.1739V61.2868H112.392V57.6638C110.677 60.3327 107.722 61.809 104.147 61.809C96.9989 61.809 92.329 56.1373 92.329 49.1324C92.329 42.1275 96.8081 36.6466 104.195 36.6466C107.436 36.6466 110.436 37.9321 112.392 40.7441V37.1688H118.255V37.1739ZM105.34 56.9031C109.342 56.9031 112.535 54.1865 112.535 49.4211C112.535 44.6558 109.532 41.5576 105.196 41.5576C100.86 41.5576 98.2392 45.0374 98.2392 49.1826C98.2392 53.3278 100.956 56.9031 105.34 56.9031Z" fill="white"/>
<path d="M127.449 53.6139C128.069 56.0443 130.356 57.0937 132.596 57.0937C134.311 57.0937 136.219 56.4736 136.219 54.568C136.219 53.2825 135.074 52.6146 133.598 51.9945L130.07 50.6613C125.257 48.8988 124.017 46.0868 124.017 43.9426C124.017 39.4635 127.828 36.6515 132.832 36.6515C135.835 36.6515 139.741 37.701 141.268 42.037L136.55 43.7518C135.93 41.7985 134.168 41.2737 132.88 41.2737C131.356 41.2737 129.734 42.1324 129.734 43.7995C129.734 45.1327 130.926 45.7528 132.26 46.2776L135.835 47.5631C141.029 49.1825 141.984 52.4238 141.984 54.4726C141.984 59.2379 137.552 61.8114 132.548 61.8114C128.594 61.8114 124.208 60.1443 122.827 55.5697L127.449 53.6164V53.6139Z" fill="white"/>
<path d="M149.465 53.6139C150.086 56.0443 152.373 57.0937 154.612 57.0937C156.327 57.0937 158.235 56.4736 158.235 54.568C158.235 53.2825 157.09 52.6146 155.614 51.9945L152.087 50.6613C147.274 48.8988 146.033 46.0868 146.033 43.9426C146.033 39.4635 149.844 36.6515 154.848 36.6515C157.851 36.6515 161.758 37.701 163.284 42.037L158.567 43.7518C157.947 41.7985 156.184 41.2737 154.896 41.2737C153.372 41.2737 151.75 42.1324 151.75 43.7995C151.75 45.1327 152.943 45.7528 154.276 46.2776L157.851 47.5631C163.046 49.1825 164 52.4238 164 54.4726C164 59.2379 159.568 61.8114 154.565 61.8114C150.61 61.8114 146.224 60.1443 144.843 55.5697L149.465 53.6164V53.6139Z" fill="white"/>
<path d="M20.6104 49.2303V24.0679H31.178C36.2095 24.0679 39.0491 27.8063 39.0491 32.1549C39.0491 36.5035 36.2095 40.026 31.178 40.026H25.2101V49.2278H20.6079L20.6104 49.2303ZM30.46 36.398C32.9054 36.398 34.3415 34.6731 34.3415 32.1197C34.3415 29.5663 32.9029 27.7712 30.46 27.7712H25.2126V36.398H30.46Z" fill="white"/>
</g>
<defs>
<linearGradient id="paint0_linear_585_13317" x1="7.93889" y1="69.577" x2="47.1739" y2="1.6169" gradientUnits="userSpaceOnUse">
<stop stop-color="#164396"/>
<stop offset="0.8" stop-color="#00A0DD"/>
</linearGradient>
<clipPath id="clip0_585_13317">
<rect width="164" height="71.1939" fill="white"/>
</clipPath>
</defs>
</svg>
