<svg width="32" height="32" viewBox="0 0 32 32" fill="none" xmlns="http://www.w3.org/2000/svg">
<path d="M0 16C0 7.16344 7.16344 0 16 0C24.8366 0 32 7.16344 32 16C32 24.8366 24.8366 32 16 32C7.16344 32 0 24.8366 0 16Z" fill="url(#paint0_linear_298_14396)"/>
<path d="M22.6654 12.6667L17.4196 17.9125C17.1556 18.1765 17.0236 18.3085 16.8714 18.358C16.7375 18.4015 16.5932 18.4015 16.4594 18.358C16.3071 18.3085 16.1751 18.1765 15.9111 17.9125L14.0863 16.0877C13.8223 15.8237 13.6903 15.6916 13.538 15.6422C13.4041 15.5987 13.2599 15.5987 13.126 15.6422C12.9738 15.6916 12.8418 15.8237 12.5778 16.0877L9.33203 19.3334M22.6654 12.6667H17.9987M22.6654 12.6667V17.3334" stroke="white" stroke-width="1.33333" stroke-linecap="round" stroke-linejoin="round"/>
<defs>
<linearGradient id="paint0_linear_298_14396" x1="4.95253" y1="31.2731" x2="19.3938" y2="-3.4484" gradientUnits="userSpaceOnUse">
<stop stop-color="#164396"/>
<stop offset="0.8" stop-color="#00A0DD"/>
</linearGradient>
</defs>
</svg>
