<svg width="32" height="32" viewBox="0 0 32 32" fill="none" xmlns="http://www.w3.org/2000/svg">
<path d="M0 16C0 7.16344 7.16344 0 16 0C24.8366 0 32 7.16344 32 16C32 24.8366 24.8366 32 16 32C7.16344 32 0 24.8366 0 16Z" fill="url(#paint0_linear_298_14416)"/>
<path d="M21.332 14.3334V12.8001C21.332 12.0533 21.332 11.68 21.1867 11.3948C21.0589 11.1439 20.8549 10.9399 20.604 10.8121C20.3188 10.6668 19.9454 10.6667 19.1987 10.6667H11.4654C10.7186 10.6667 10.3453 10.6667 10.06 10.8121C9.80916 10.9399 9.60519 11.1439 9.47736 11.3948C9.33203 11.68 9.33203 12.0533 9.33203 12.8001V19.2001C9.33203 19.9468 9.33203 20.3202 9.47736 20.6054C9.60519 20.8563 9.80916 21.0603 10.06 21.1881C10.3453 21.3334 10.7186 21.3334 11.4654 21.3334L19.1987 21.3334C19.9454 21.3334 20.3188 21.3334 20.604 21.1881C20.8549 21.0603 21.0589 20.8563 21.1867 20.6054C21.332 20.3202 21.332 19.9468 21.332 19.2001V17.6667M17.9987 16.0001C17.9987 15.6903 17.9987 15.5354 18.0243 15.4066C18.1295 14.8777 18.543 14.4642 19.0719 14.359C19.2007 14.3334 19.3556 14.3334 19.6654 14.3334H20.9987C21.3085 14.3334 21.4634 14.3334 21.5922 14.359C22.1211 14.4642 22.5345 14.8777 22.6397 15.4066C22.6654 15.5354 22.6654 15.6903 22.6654 16.0001C22.6654 16.3099 22.6654 16.4647 22.6397 16.5935C22.5345 17.1225 22.1211 17.5359 21.5922 17.6411C21.4634 17.6667 21.3085 17.6667 20.9987 17.6667H19.6654C19.3556 17.6667 19.2007 17.6667 19.0719 17.6411C18.543 17.5359 18.1295 17.1225 18.0243 16.5935C17.9987 16.4647 17.9987 16.3099 17.9987 16.0001Z" stroke="white" stroke-width="1.33333" stroke-linecap="round" stroke-linejoin="round"/>
<defs>
<linearGradient id="paint0_linear_298_14416" x1="-0.000498336" y1="31.9998" x2="31.9996" y2="-0.000389615" gradientUnits="userSpaceOnUse">
<stop stop-color="#53389E"/>
<stop offset="1" stop-color="#7F56D9"/>
</linearGradient>
</defs>
</svg>
