<svg width="32" height="32" viewBox="0 0 32 32" fill="none" xmlns="http://www.w3.org/2000/svg">
<rect width="32" height="32" rx="16" fill="url(#paint0_linear_298_14426)"/>
<g clip-path="url(#clip0_298_14426)">
<path d="M13.332 13.3333H13.3387M9.33203 11.4666L9.33203 14.4496C9.33203 14.7757 9.33203 14.9388 9.36887 15.0922C9.40153 15.2283 9.45541 15.3583 9.52851 15.4776C9.61097 15.6122 9.72627 15.7275 9.95687 15.9581L15.0693 21.0705C15.8613 21.8625 16.2573 22.2586 16.714 22.4069C17.1157 22.5375 17.5484 22.5375 17.9501 22.4069C18.4067 22.2586 18.8027 21.8625 19.5948 21.0705L21.0693 19.596C21.8613 18.804 22.2573 18.4079 22.4057 17.9513C22.5362 17.5496 22.5362 17.1169 22.4057 16.7152C22.2573 16.2586 21.8613 15.8625 21.0693 15.0705L15.9569 9.95809C15.7263 9.72749 15.611 9.61219 15.4764 9.52973C15.3571 9.45663 15.2271 9.40275 15.091 9.37009C14.9376 9.33325 14.7745 9.33325 14.4484 9.33325L11.4654 9.33325C10.7186 9.33325 10.3453 9.33325 10.06 9.47858C9.80916 9.60641 9.60519 9.81038 9.47736 10.0613C9.33203 10.3465 9.33203 10.7198 9.33203 11.4666ZM13.6654 13.3333C13.6654 13.5173 13.5161 13.6666 13.332 13.6666C13.1479 13.6666 12.9987 13.5173 12.9987 13.3333C12.9987 13.1492 13.1479 12.9999 13.332 12.9999C13.5161 12.9999 13.6654 13.1492 13.6654 13.3333Z" stroke="white" stroke-width="1.33333" stroke-linecap="round" stroke-linejoin="round"/>
</g>
<defs>
<linearGradient id="paint0_linear_298_14426" x1="4.95253" y1="31.2731" x2="19.3938" y2="-3.4484" gradientUnits="userSpaceOnUse">
<stop stop-color="#6F8A18"/>
<stop offset="0.8" stop-color="#BCE72C"/>
</linearGradient>
<clipPath id="clip0_298_14426">
<rect width="16" height="16" fill="white" transform="translate(8 8)"/>
</clipPath>
</defs>
</svg>
