<svg width="19" height="19" viewBox="0 0 19 19" fill="none" xmlns="http://www.w3.org/2000/svg">
<path d="M8.33203 2.60126H4.83203C3.4319 2.60126 2.73183 2.60126 2.19705 2.87375C1.72665 3.11343 1.3442 3.49588 1.10451 3.96629C0.832031 4.50107 0.832031 5.20113 0.832031 6.60126V13.6013C0.832031 15.0014 0.832031 15.7015 1.10451 16.2362C1.3442 16.7066 1.72665 17.0891 2.19705 17.3288C2.73183 17.6013 3.4319 17.6013 4.83203 17.6013H11.832C13.2322 17.6013 13.9322 17.6013 14.467 17.3288C14.9374 17.0891 15.3199 16.7066 15.5595 16.2362C15.832 15.7015 15.832 15.0014 15.832 13.6013V10.1013M5.83201 12.6013H7.22746C7.63511 12.6013 7.83894 12.6013 8.03075 12.5552C8.20081 12.5144 8.36339 12.447 8.51251 12.3557C8.6807 12.2526 8.82483 12.1085 9.11308 11.8202L17.082 3.85126C17.7724 3.16091 17.7724 2.04162 17.082 1.35126C16.3917 0.660908 15.2724 0.660907 14.582 1.35126L6.61306 9.32022C6.32481 9.60847 6.18068 9.75259 6.07761 9.92079C5.98623 10.0699 5.91889 10.2325 5.87806 10.4025C5.83201 10.5944 5.83201 10.7982 5.83201 11.2058V12.6013Z" stroke="#A4A7AE" stroke-width="1.66667" stroke-linecap="round" stroke-linejoin="round"/>
</svg>
