<svg width="17" height="19" viewBox="0 0 17 19" fill="none" xmlns="http://www.w3.org/2000/svg">
<path d="M11.6654 4.16683V3.50016C11.6654 2.56674 11.6654 2.10003 11.4837 1.74351C11.3239 1.42991 11.069 1.17494 10.7553 1.01515C10.3988 0.833496 9.93212 0.833496 8.9987 0.833496H7.66536C6.73194 0.833496 6.26523 0.833496 5.90871 1.01515C5.59511 1.17494 5.34014 1.42991 5.18035 1.74351C4.9987 2.10003 4.9987 2.56674 4.9987 3.50016V4.16683M0.832031 4.16683H15.832M14.1654 4.16683V13.5002C14.1654 14.9003 14.1654 15.6004 13.8929 16.1351C13.6532 16.6055 13.2707 16.988 12.8003 17.2277C12.2656 17.5002 11.5655 17.5002 10.1654 17.5002H6.4987C5.09857 17.5002 4.3985 17.5002 3.86372 17.2277C3.39332 16.988 3.01086 16.6055 2.77118 16.1351C2.4987 15.6004 2.4987 14.9003 2.4987 13.5002V4.16683" stroke="#F04438" stroke-width="1.66667" stroke-linecap="round" stroke-linejoin="round"/>
</svg>
